HIERARCHY
ROOT Hips
{
	OFFSET 0.000000 0.000000 0.000000
	CHANNELS 6 Xposition Yposition Zposition Zrotation Yrotation Xrotation 
	JOINT LowerBack
	{
		OFFSET 0.000000 0.000000 0.000000
		CHANNELS 3 Zrotation Yrotation Xrotation
		JOINT Spine
		{
			OFFSET 0.028270 2.035590 -0.193380
			CHANNELS 3 Zrotation Yrotation Xrotation
			JOINT Spine1
			{
				OFFSET 0.056720 2.048850 -0.042750
				CHANNELS 3 Zrotation Yrotation Xrotation
				JOINT Neck
				{
					OFFSET 0.000000 0.000000 0.000000
					CHANNELS 3 Zrotation Yrotation Xrotation
					JOINT Neck1
					{
						OFFSET -0.054170 1.746240 0.172020
						CHANNELS 3 Zrotation Yrotation Xrotation
						JOINT Head
						{
							OFFSET 0.104070 1.761360 -0.123970
							CHANNELS 3 Zrotation Yrotation Xrotation
							End Site
							{
								OFFSET 0.000000 0.000000 0.000000
							}
						}
					}
				}
				JOINT LeftShoulder
				{
					OFFSET 0.000000 0.000000 0.000000
					CHANNELS 3 Zrotation Yrotation Xrotation
					JOINT LeftArm
					{
						OFFSET 3.362410 1.200890 -0.311210
						CHANNELS 3 Zrotation Yrotation Xrotation
						JOINT LeftForeArm
						{
							OFFSET 4.983000 -0.000000 -0.000000
							CHANNELS 3 Zrotation Yrotation Xrotation
							JOINT LeftHand
							{
								OFFSET 3.483560 -0.000000 -0.000000
								CHANNELS 3 Zrotation Yrotation Xrotation
								JOINT LeftFingerBase
								{
									OFFSET 0.000000 0.000000 0.000000
									CHANNELS 3 Zrotation Yrotation Xrotation
									JOINT LeftHandIndex1
									{
										OFFSET 0.715260 -0.000000 -0.000000
										CHANNELS 3 Zrotation Yrotation Xrotation
										End Site
										{
											OFFSET 0.000000 0.000000 0.000000
										}
									}
								}
								JOINT LThumb
								{
									OFFSET 0.000000 0.000000 0.000000
									CHANNELS 3 Zrotation Yrotation Xrotation
									End Site
									{
										OFFSET 0.000000 0.000000 0.000000
									}
								}
							}
						}
					}
				}
				JOINT RightShoulder
				{
					OFFSET 0.000000 0.000000 0.000000
					CHANNELS 3 Zrotation Yrotation Xrotation
					JOINT RightArm
					{
						OFFSET -3.136600 1.374050 -0.404650
						CHANNELS 3 Zrotation Yrotation Xrotation
						JOINT RightForeArm
						{
							OFFSET -5.241900 -0.000000 -0.000000
							CHANNELS 3 Zrotation Yrotation Xrotation
							JOINT RightHand
							{
								OFFSET -3.444170 -0.000000 -0.000000
								CHANNELS 3 Zrotation Yrotation Xrotation
								JOINT RightFingerBase
								{
									OFFSET 0.000000 0.000000 0.000000
									CHANNELS 3 Zrotation Yrotation Xrotation
									JOINT RightHandIndex1
									{
										OFFSET -0.622530 -0.000000 -0.000000
										CHANNELS 3 Zrotation Yrotation Xrotation
										End Site
										{
											OFFSET 0.000000 0.000000 0.000000
										}
									}
								}
								JOINT RThumb
								{
									OFFSET 0.000000 0.000000 0.000000
									CHANNELS 3 Zrotation Yrotation Xrotation
									End Site
									{
										OFFSET 0.000000 0.000000 0.000000
									}
								}
							}
						}
					}
				}
			}
		}
	}
}
}
MOTION
Frames: 17
Frame Time: 0.008333
5.172756 17.553373 3.529919 -175.394814 -88.804956 -167.245090 -1.886888 -2.378081 2.383123 -1.485199 -2.300054 -2.306636 -8.518743 -2.318035 0.913125 13.117816 -3.250584 -3.891208 -4.205376 -0.334157 0.827916 0.000000 0.000000 0.000000 -4.038125 1.060874 3.478593 -40.773344 -21.968661 14.472394 -2.980492 -51.986219 0.017451 -6.634150 0.668665 -0.028994 -0.099073 0.138621 0.000000 0.000000 0.000000 0.000000 0.000000 0.000000 0.000000 21.503760 -2.692121 1.435146 62.562952 0.286978 6.956705 3.495207 24.730412 0.007003 6.876853 4.110755 0.247562 0.042509 -0.028763 0.000000 0.000000 0.000000 0.000000 0.000000 0.000000 0.000000 
4.967438 17.543941 3.515986 164.232868 -89.697116 -146.830895 -1.604922 -2.742803 2.332556 -1.450433 -2.689772 -2.283220 -8.525694 -2.695920 0.953672 13.206118 -3.654888 -3.957737 -4.194141 -0.333362 0.814921 0.000000 0.000000 0.000000 -3.644841 0.665192 3.519469 -39.461175 -22.825761 13.853117 -2.827697 -53.339915 0.019183 -6.569450 0.624192 -0.025296 -0.091575 0.153738 0.000000 0.000000 0.000000 0.000000 0.000000 0.000000 0.000000 21.591785 -3.296062 1.407390 62.618190 -0.713405 6.979072 3.505985 25.001634 0.006399 7.085725 4.033233 0.250142 0.041654 -0.024287 0.000000 0.000000 0.000000 0.000000 0.000000 0.000000 0.000000 
4.763105 17.527799 3.499203 -55.659836 -89.517034 73.074450 -0.875285 -2.939043 2.305011 -1.317358 -2.929587 -2.261850 -8.557879 -2.927130 1.015630 13.293594 -4.140408 -4.061503 -4.177872 -0.331639 0.792387 0.000000 0.000000 0.000000 -3.230575 0.374204 3.501909 -38.130221 -23.691770 13.150896 -2.663613 -54.577012 0.020825 -6.517884 0.590564 -0.022414 -0.082211 0.168401 0.000000 0.000000 0.000000 0.000000 0.000000 0.000000 0.000000 21.669680 -3.899102 1.397209 62.610558 -1.577234 7.111671 3.521224 25.272894 0.006029 7.217781 4.021179 0.253833 0.041996 -0.020936 -0.000000 0.000000 0.000000 0.000000 0.000000 0.000000 0.000000 
4.559245 17.504823 3.479871 -81.976265 -89.560780 99.376169 -0.754698 -2.988823 2.283160 -1.280242 -2.985624 -2.241758 -8.565057 -2.977608 1.069884 13.378057 -4.646079 -4.168775 -4.154956 -0.329478 0.768081 0.000000 0.000000 0.000000 -2.779930 0.182361 3.451277 -36.745876 -24.496904 12.379905 -2.497345 -55.725487 0.022226 -6.482880 0.572631 -0.020651 -0.071908 0.181261 -0.000000 0.000000 0.000000 0.000000 0.000000 0.000000 0.000000 21.735319 -4.442916 1.390555 62.594646 -2.394524 7.192240 3.528889 25.576117 0.005843 7.318963 4.042228 0.258630 0.042373 -0.018882 0.000000 0.000000 0.000000 0.000000 0.000000 0.000000 0.000000 
4.354282 17.477428 3.462558 42.465536 -89.791629 -25.044621 -1.078723 -3.172119 2.240841 -1.292076 -3.154324 -2.219326 -8.529569 -3.145244 1.126292 13.444887 -5.158817 -4.262022 -4.133125 -0.327658 0.751634 0.000000 0.000000 0.000000 -2.386921 -0.082985 3.428459 -35.292589 -25.267415 11.564706 -2.350145 -56.764955 0.023851 -6.470773 0.566894 -0.019586 -0.061400 0.195619 -0.000000 0.000000 0.000000 0.000000 0.000000 0.000000 0.000000 21.789485 -5.086740 1.351238 62.521756 -3.222732 7.173635 3.524612 25.933479 0.005574 7.406903 4.086187 0.264425 0.042004 -0.016620 0.000000 0.000000 0.000000 0.000000 0.000000 0.000000 0.000000 
4.150287 17.441347 3.438864 49.989879 -89.447354 -32.629105 -1.141466 -3.344641 2.277583 -1.305319 -3.327580 -2.181678 -8.502626 -3.310161 1.179889 13.500428 -5.680834 -4.353481 -4.104852 -0.325401 0.730043 0.000000 0.000000 0.000000 -1.891878 -0.336280 3.382121 -33.847639 -25.984232 10.694662 -2.198203 -57.677611 0.025326 -6.480049 0.579172 -0.019637 -0.050071 0.208393 -0.000000 0.000000 0.000000 0.000000 0.000000 0.000000 0.000000 21.814381 -5.717737 1.318415 62.513919 -4.057839 7.038885 3.522823 26.325455 0.005370 7.488973 4.151071 0.271420 0.042069 -0.014531 0.000000 0.000000 0.000000 0.000000 0.000000 0.000000 0.000000 
3.945406 17.399051 3.413963 55.854686 -89.071313 -38.560344 -1.270130 -3.507954 2.319923 -1.330455 -3.488511 -2.140128 -8.461191 -3.462652 1.242751 13.536579 -6.253077 -4.457486 -4.071111 -0.322681 0.705023 0.000000 0.000000 0.000000 -1.392782 -0.558391 3.320202 -32.398528 -26.668940 9.778679 -2.051337 -58.475559 0.026817 -6.513178 0.601163 -0.020395 -0.037991 0.220579 -0.000000 0.000000 0.000000 0.000000 0.000000 0.000000 0.000000 21.807449 -6.397548 1.279938 62.492882 -4.826233 6.875720 3.520619 26.719814 0.005257 7.543151 4.250872 0.279818 0.042447 -0.012822 0.000000 0.000000 0.000000 0.000000 0.000000 0.000000 0.000000 
3.739457 17.351126 3.388229 60.561004 -88.678754 -43.338207 -1.438063 -3.657769 2.362613 -1.362667 -3.634345 -2.099604 -8.409858 -3.600823 1.301686 13.553655 -6.812831 -4.556861 -4.034483 -0.319817 0.681273 0.000000 0.000000 0.000000 -0.904433 -0.757868 3.251457 -30.942735 -27.299938 8.827113 -1.911212 -59.173995 0.028319 -6.563971 0.634744 -0.021960 -0.025573 0.232157 -0.000000 0.000000 0.000000 0.000000 0.000000 0.000000 0.000000 21.770382 -7.054848 1.238754 62.472546 -5.616684 6.556343 3.519455 27.159841 0.005191 7.614587 4.350084 0.289019 0.042886 -0.011401 0.000000 0.000000 0.000000 0.000000 0.000000 0.000000 0.000000 
3.531917 17.298111 3.362009 64.382037 -88.279165 -47.224081 -1.626683 -3.794567 2.398477 -1.397221 -3.766441 -2.057863 -8.346285 -3.725469 1.371161 13.551452 -7.425558 -4.673976 -3.993105 -0.316468 0.653000 0.000000 0.000000 0.000000 -0.424852 -0.917973 3.168050 -29.512221 -27.895171 7.836655 -1.777419 -59.767238 0.029853 -6.631976 0.675412 -0.024031 -0.012665 0.243120 -0.000000 0.000000 0.000000 0.000000 0.000000 0.000000 0.000000 21.704128 -7.759919 1.195150 62.426402 -6.326606 6.226975 3.519680 27.592903 0.005231 7.658647 4.476899 0.299021 0.043753 -0.010373 0.000000 0.000000 0.000000 0.000000 0.000000 0.000000 0.000000 
3.322688 17.240746 3.335500 67.582119 -87.877125 -50.484123 -1.823801 -3.918438 2.428404 -1.432573 -3.885475 -2.018344 -8.275398 -3.837936 1.437828 13.533210 -8.028227 -4.791645 -3.950228 -0.312996 0.624729 0.000000 0.000000 0.000000 0.035883 -1.049740 3.079949 -28.104249 -28.433591 6.817611 -1.651392 -60.273135 0.031385 -6.706702 0.725591 -0.026803 0.000227 0.253492 -0.000000 0.000000 0.000000 0.000000 0.000000 0.000000 0.000000 21.616969 -8.443659 1.151546 62.366405 -7.040616 5.777986 3.521459 28.062713 0.005325 7.713655 4.598319 0.309226 0.044770 -0.009641 0.000000 0.000000 0.000000 0.000000 0.000000 0.000000 0.000000 
3.111779 17.179690 3.308776 70.305919 -87.475966 -53.266566 -2.021938 -4.031151 2.457077 -1.467121 -3.993358 -1.979646 -8.197829 -3.940009 1.503324 13.501814 -8.631224 -4.914920 -3.906231 -0.309364 0.595066 0.000000 0.000000 0.000000 0.480595 -1.151931 2.986983 -26.738585 -28.913035 5.770728 -1.533110 -60.699077 0.032900 -6.782181 0.784407 -0.030079 0.012968 0.263301 -0.000000 0.000000 0.000000 0.000000 0.000000 0.000000 0.000000 21.514969 -9.117322 1.109233 62.282673 -7.733195 5.255479 3.524194 28.558513 0.005483 7.767274 4.716429 0.319332 0.046001 -0.009216 0.000000 0.000000 0.000000 0.000000 0.000000 0.000000 0.000000 
2.899155 17.115664 3.281892 72.656154 -87.078260 -55.679961 -2.215178 -4.134373 2.493284 -1.500127 -4.091870 -1.941325 -8.116296 -4.033611 1.562669 13.460867 -9.212246 -5.038608 -3.862816 -0.305718 0.565238 0.000000 0.000000 0.000000 0.908140 -1.230410 2.893545 -25.424045 -29.321003 4.700583 -1.423008 -61.060177 0.034363 -6.849627 0.852294 -0.034054 0.025248 0.272580 -0.000000 0.000000 0.000000 0.000000 0.000000 0.000000 0.000000 21.405874 -9.757361 1.069790 62.175867 -8.423657 4.646928 3.526985 29.091278 0.005683 7.825905 4.820269 0.328740 0.047346 -0.009061 0.000000 0.000000 0.000000 0.000000 0.000000 0.000000 0.000000 
2.684971 17.049351 3.254922 74.676684 -86.688542 -57.776269 -2.397402 -4.230513 2.547386 -1.530052 -4.183503 -1.900356 -8.030523 -4.120987 1.619766 13.413348 -9.792203 -5.170180 -3.819531 -0.301931 0.533141 0.000000 0.000000 0.000000 1.325482 -1.282721 2.797640 -24.185313 -29.656310 3.605033 -1.320717 -61.364809 0.035759 -6.905270 0.926999 -0.038527 0.037034 0.281375 -0.000000 0.000000 0.000000 0.000000 0.000000 0.000000 0.000000 21.293423 -10.387716 1.034032 62.034456 -9.063385 4.028909 3.528732 29.632777 0.005948 7.862865 4.923603 0.337349 0.048924 -0.009210 0.000000 0.000000 0.000000 0.000000 0.000000 0.000000 0.000000 
2.469226 16.981650 3.227893 76.379029 -86.312184 -59.570441 -2.559445 -4.321266 2.623425 -1.555842 -4.270492 -1.858388 -7.945444 -4.204680 1.666353 13.363020 -10.329397 -5.297886 -3.779473 -0.298328 0.501807 0.000000 0.000000 0.000000 1.724786 -1.320419 2.706635 -23.018383 -29.897784 2.493619 -1.226937 -61.636197 0.037039 -6.940041 1.009047 -0.043298 0.047895 0.289711 -0.000000 0.000000 0.000000 0.000000 0.000000 0.000000 0.000000 21.188044 -10.965208 1.002809 61.865050 -9.699218 3.351389 3.528826 30.205949 0.006231 7.898849 5.006040 0.344560 0.050524 -0.009557 0.000000 0.000000 0.000000 0.000000 0.000000 0.000000 0.000000 
2.252286 16.913387 3.201033 77.861365 -85.960288 -61.171327 -2.692129 -4.407549 2.739110 -1.574950 -4.353895 -1.809078 -7.858018 -4.285164 1.713859 13.310932 -10.876957 -5.438710 -3.739698 -0.294500 0.466444 0.000000 0.000000 0.000000 2.114848 -1.327704 2.613629 -21.957098 -30.065509 1.356949 -1.141072 -61.870370 0.038211 -6.956874 1.090938 -0.048067 0.058094 0.297689 -0.000000 0.000000 0.000000 0.000000 0.000000 0.000000 0.000000 21.085404 -11.548791 0.976681 61.648949 -10.222680 2.753690 3.526566 30.742018 0.006602 7.879655 5.106263 0.350572 0.052454 -0.010217 0.000000 0.000000 0.000000 0.000000 0.000000 0.000000 0.000000 
2.033743 16.845605 3.174283 79.068400 -85.642937 -62.502989 -2.778066 -4.490089 2.869748 -1.585468 -4.435924 -1.765084 -7.779696 -4.365716 1.741907 13.260928 -11.333498 -5.560795 -3.708084 -0.291357 0.435749 0.000000 0.000000 0.000000 2.474045 -1.344100 2.534989 -20.974061 -30.094804 0.218941 -1.064726 -62.119149 0.039199 -6.945501 1.176646 -0.052931 0.066802 0.305184 -0.000000 0.000000 0.000000 0.000000 0.000000 0.000000 0.000000 21.005552 -12.033407 0.956029 61.410842 -10.778840 2.059929 3.522533 31.312526 0.006933 7.876282 5.168953 0.354683 0.054199 -0.010912 0.000000 0.000000 0.000000 0.000000 0.000000 0.000000 0.000000 
1.813777 16.779203 3.147934 80.103977 -85.374861 -63.664766 -2.804878 -4.569346 3.019640 -1.583168 -4.517267 -1.720885 -7.704313 -4.446157 1.773592 13.212032 -11.790870 -5.694916 -3.678626 -0.288127 0.401305 0.000000 0.000000 0.000000 2.801181 -1.319262 2.458670 -20.093982 -30.059570 -0.924913 -0.997214 -62.349890 0.040025 -6.911823 1.251880 -0.056891 0.074511 0.312406 -0.000000 0.000000 0.000000 0.000000 0.000000 0.000000 0.000000 20.936747 -12.520212 0.938709 61.123006 -11.199477 1.468308 3.517093 31.809328 0.007338 7.809331 5.255334 0.357495 0.056273 -0.011817 0.000000 0.000000 0.000000 0.000000 0.000000 0.000000 0.000000 
